# xmcd CD database file
#
# Track frame offsets:
#	150
#	17963
#	41243
#	76576
#	105560
#	124153
#	150406
#	166296
#	182562
#	205686
#	235001
#
# Disc length: 3366 seconds
#
# Revision: 0
# Processed by: cddbd v1.5.1PL0 Copyright (c) Steve Scherf et al.
# Submitted via: CDex 1.51
#
DISCID=7c0d240b
DTITLE=Levantis - Shiatsu
DYEAR=2004
DGENRE=New Age
TTITLE0=Daybreak
TTITLE1=Golden Fields
TTITLE2=Purity
TTITLE3=Cosmic Hymn
TTITLE4=Lunar Dreams
TTITLE5=Flowering Time
TTITLE6=Morning Lustre
TTITLE7=Summer Rain
TTITLE8=Fountain of Energy
TTITLE9=Wave Dancer
TTITLE10=Mercury
EXTD=YEAR: 2004
EXTT0=
EXTT1=
EXTT2=
EXTT3=
EXTT4=
EXTT5=
EXTT6=
EXTT7=
EXTT8=
EXTT9=
EXTT10=
PLAYORDER=
